<mxfile host="app.diagrams.net" agent="Mozilla/5.0 (Windows NT 10.0; Win64; x64) AppleWebKit/537.36 (KHTML, like Gecko) Chrome/129.0.0.0 Safari/537.36" version="26.2.14">
  <diagram name="第 1 页" id="qHFYKtDAnqTjGrU_OHOG">
    <mxGraphModel dx="1554" dy="822" grid="1" gridSize="10" guides="1" tooltips="1" connect="1" arrows="1" fold="1" page="1" pageScale="1" pageWidth="3300" pageHeight="2339" math="0" shadow="0">
      <root>
        <mxCell id="0" />
        <mxCell id="1" parent="0" />
        <mxCell id="00rbyf-99KH5G40TQg_o-1" value="" style="rounded=0;whiteSpace=wrap;html=1;strokeWidth=1;fillColor=none;align=center;" vertex="1" parent="1">
          <mxGeometry x="368" y="370" width="170" height="260" as="geometry" />
        </mxCell>
        <mxCell id="00rbyf-99KH5G40TQg_o-2" value="" style="rounded=0;whiteSpace=wrap;html=1;strokeWidth=1;fillColor=none;align=center;" vertex="1" parent="1">
          <mxGeometry x="339" y="220" width="223" height="420" as="geometry" />
        </mxCell>
        <mxCell id="00rbyf-99KH5G40TQg_o-3" value="" style="ellipse;whiteSpace=wrap;html=1;gradientColor=none;fillColor=none;dashed=1;dashPattern=8 8;" vertex="1" parent="1">
          <mxGeometry x="378" y="460" width="150" height="120" as="geometry" />
        </mxCell>
        <mxCell id="00rbyf-99KH5G40TQg_o-4" value="&lt;b&gt;数据资源请求者&lt;/b&gt;" style="text;html=1;align=center;verticalAlign=middle;whiteSpace=wrap;rounded=0;" vertex="1" parent="1">
          <mxGeometry x="405.5" y="590" width="95" height="30" as="geometry" />
        </mxCell>
        <mxCell id="00rbyf-99KH5G40TQg_o-5" value="&lt;b&gt;可信任执行环境&lt;/b&gt;" style="text;html=1;align=center;verticalAlign=middle;whiteSpace=wrap;rounded=0;fontSize=14;" vertex="1" parent="1">
          <mxGeometry x="399" y="221" width="110" height="30" as="geometry" />
        </mxCell>
        <mxCell id="00rbyf-99KH5G40TQg_o-6" value="" style="group" vertex="1" connectable="0" parent="1">
          <mxGeometry x="409" y="259" width="130" height="40" as="geometry" />
        </mxCell>
        <mxCell id="00rbyf-99KH5G40TQg_o-7" value="" style="rounded=0;whiteSpace=wrap;html=1;strokeWidth=1;fillColor=none;align=center;" vertex="1" parent="00rbyf-99KH5G40TQg_o-6">
          <mxGeometry x="-7" width="130" height="40" as="geometry" />
        </mxCell>
        <mxCell id="00rbyf-99KH5G40TQg_o-8" value="&lt;b&gt;数据应用&lt;/b&gt;" style="text;html=1;align=center;verticalAlign=middle;whiteSpace=wrap;rounded=0;" vertex="1" parent="00rbyf-99KH5G40TQg_o-6">
          <mxGeometry x="36.03" y="8" width="57.94" height="24" as="geometry" />
        </mxCell>
        <mxCell id="00rbyf-99KH5G40TQg_o-9" style="edgeStyle=orthogonalEdgeStyle;rounded=0;orthogonalLoop=1;jettySize=auto;html=1;exitX=1;exitY=0;exitDx=0;exitDy=0;entryX=0.5;entryY=1;entryDx=0;entryDy=0;strokeWidth=4;" edge="1" parent="1" source="00rbyf-99KH5G40TQg_o-10" target="00rbyf-99KH5G40TQg_o-20">
          <mxGeometry relative="1" as="geometry">
            <Array as="points">
              <mxPoint x="498" y="497" />
            </Array>
          </mxGeometry>
        </mxCell>
        <mxCell id="00rbyf-99KH5G40TQg_o-10" value="&lt;b&gt;DHP数据解封层&lt;/b&gt;" style="ellipse;whiteSpace=wrap;html=1;gradientColor=none;fillColor=none;dashed=1;dashPattern=8 8;" vertex="1" parent="1">
          <mxGeometry x="389" y="493" width="130" height="30" as="geometry" />
        </mxCell>
        <mxCell id="00rbyf-99KH5G40TQg_o-11" value="&lt;b&gt;NHP代理&lt;/b&gt;&lt;div&gt;&lt;b&gt;（NHP-Agent）&lt;/b&gt;&lt;/div&gt;" style="text;html=1;align=center;verticalAlign=middle;whiteSpace=wrap;rounded=0;" vertex="1" parent="1">
          <mxGeometry x="393.5" y="535" width="120" height="30" as="geometry" />
        </mxCell>
        <mxCell id="00rbyf-99KH5G40TQg_o-12" value="" style="group" vertex="1" connectable="0" parent="1">
          <mxGeometry x="378" y="390" width="80" height="40" as="geometry" />
        </mxCell>
        <mxCell id="00rbyf-99KH5G40TQg_o-13" value="" style="group" vertex="1" connectable="0" parent="00rbyf-99KH5G40TQg_o-12">
          <mxGeometry width="80" height="40" as="geometry" />
        </mxCell>
        <mxCell id="00rbyf-99KH5G40TQg_o-14" value="" style="group" vertex="1" connectable="0" parent="00rbyf-99KH5G40TQg_o-13">
          <mxGeometry width="80" height="40" as="geometry" />
        </mxCell>
        <mxCell id="00rbyf-99KH5G40TQg_o-15" value="" style="rounded=0;whiteSpace=wrap;html=1;strokeWidth=1;fillColor=none;align=center;" vertex="1" parent="00rbyf-99KH5G40TQg_o-14">
          <mxGeometry width="80" height="40" as="geometry" />
        </mxCell>
        <mxCell id="00rbyf-99KH5G40TQg_o-16" value="&lt;b&gt;零信任数据对象ZTDO&lt;/b&gt;" style="text;html=1;align=center;verticalAlign=middle;whiteSpace=wrap;rounded=0;" vertex="1" parent="00rbyf-99KH5G40TQg_o-14">
          <mxGeometry x="6" y="9" width="70" height="24" as="geometry" />
        </mxCell>
        <mxCell id="00rbyf-99KH5G40TQg_o-17" value="" style="group" vertex="1" connectable="0" parent="1">
          <mxGeometry x="458" y="396" width="80" height="40" as="geometry" />
        </mxCell>
        <mxCell id="00rbyf-99KH5G40TQg_o-18" value="" style="group" vertex="1" connectable="0" parent="00rbyf-99KH5G40TQg_o-17">
          <mxGeometry width="80" height="40" as="geometry" />
        </mxCell>
        <mxCell id="00rbyf-99KH5G40TQg_o-19" value="" style="group" vertex="1" connectable="0" parent="00rbyf-99KH5G40TQg_o-18">
          <mxGeometry x="6" width="70" height="30" as="geometry" />
        </mxCell>
        <mxCell id="00rbyf-99KH5G40TQg_o-20" value="" style="rounded=0;whiteSpace=wrap;html=1;strokeWidth=1;fillColor=none;align=center;" vertex="1" parent="00rbyf-99KH5G40TQg_o-19">
          <mxGeometry x="4" width="60" height="30" as="geometry" />
        </mxCell>
        <mxCell id="00rbyf-99KH5G40TQg_o-21" value="&lt;b&gt;原始数据&lt;/b&gt;" style="text;html=1;align=center;verticalAlign=middle;whiteSpace=wrap;rounded=0;" vertex="1" parent="00rbyf-99KH5G40TQg_o-19">
          <mxGeometry y="4" width="70" height="24" as="geometry" />
        </mxCell>
        <mxCell id="00rbyf-99KH5G40TQg_o-22" style="edgeStyle=orthogonalEdgeStyle;rounded=0;orthogonalLoop=1;jettySize=auto;html=1;entryX=0;entryY=0;entryDx=0;entryDy=0;strokeWidth=4;" edge="1" parent="1" target="00rbyf-99KH5G40TQg_o-10">
          <mxGeometry relative="1" as="geometry">
            <mxPoint x="408" y="430" as="sourcePoint" />
            <Array as="points">
              <mxPoint x="408" y="430" />
            </Array>
          </mxGeometry>
        </mxCell>
        <mxCell id="00rbyf-99KH5G40TQg_o-23" style="edgeStyle=orthogonalEdgeStyle;rounded=0;orthogonalLoop=1;jettySize=auto;html=1;exitX=0.5;exitY=0;exitDx=0;exitDy=0;strokeWidth=4;" edge="1" parent="1" source="00rbyf-99KH5G40TQg_o-21">
          <mxGeometry relative="1" as="geometry">
            <mxPoint x="499" y="350" as="targetPoint" />
          </mxGeometry>
        </mxCell>
        <mxCell id="00rbyf-99KH5G40TQg_o-24" value="" style="endArrow=none;dashed=1;html=1;rounded=0;" edge="1" parent="1">
          <mxGeometry width="50" height="50" relative="1" as="geometry">
            <mxPoint x="604" y="890" as="sourcePoint" />
            <mxPoint x="604" y="210" as="targetPoint" />
          </mxGeometry>
        </mxCell>
        <mxCell id="00rbyf-99KH5G40TQg_o-25" value="" style="rounded=0;whiteSpace=wrap;html=1;strokeWidth=1;fillColor=none;align=center;" vertex="1" parent="1">
          <mxGeometry x="712" y="396" width="210" height="230" as="geometry" />
        </mxCell>
        <mxCell id="00rbyf-99KH5G40TQg_o-26" value="&lt;b&gt;NHP服务器/集群&lt;/b&gt;" style="text;html=1;align=center;verticalAlign=middle;whiteSpace=wrap;rounded=0;fontSize=14;" vertex="1" parent="1">
          <mxGeometry x="762" y="421" width="110" height="30" as="geometry" />
        </mxCell>
        <mxCell id="00rbyf-99KH5G40TQg_o-27" value="" style="ellipse;whiteSpace=wrap;html=1;gradientColor=none;fillColor=none;dashed=1;dashPattern=8 8;" vertex="1" parent="1">
          <mxGeometry x="742" y="486" width="150" height="120" as="geometry" />
        </mxCell>
        <mxCell id="00rbyf-99KH5G40TQg_o-28" value="&lt;b&gt;NHP服务器&lt;/b&gt;&lt;div&gt;&lt;b&gt;（NHP-Server）&lt;/b&gt;&lt;/div&gt;" style="text;html=1;align=center;verticalAlign=middle;whiteSpace=wrap;rounded=0;" vertex="1" parent="1">
          <mxGeometry x="757.5" y="506" width="120" height="30" as="geometry" />
        </mxCell>
        <mxCell id="00rbyf-99KH5G40TQg_o-29" value="" style="endArrow=classic;startArrow=classic;html=1;rounded=0;exitX=1;exitY=0.5;exitDx=0;exitDy=0;entryX=0.056;entryY=0.282;entryDx=0;entryDy=0;entryPerimeter=0;strokeWidth=2;" edge="1" parent="1" source="00rbyf-99KH5G40TQg_o-3" target="00rbyf-99KH5G40TQg_o-27">
          <mxGeometry width="50" height="50" relative="1" as="geometry">
            <mxPoint x="614" y="490" as="sourcePoint" />
            <mxPoint x="664" y="440" as="targetPoint" />
          </mxGeometry>
        </mxCell>
        <mxCell id="00rbyf-99KH5G40TQg_o-30" value="" style="endArrow=none;dashed=1;html=1;rounded=0;" edge="1" parent="1">
          <mxGeometry width="50" height="50" relative="1" as="geometry">
            <mxPoint x="964" y="890" as="sourcePoint" />
            <mxPoint x="964" y="210" as="targetPoint" />
          </mxGeometry>
        </mxCell>
        <mxCell id="00rbyf-99KH5G40TQg_o-31" value="" style="rounded=0;whiteSpace=wrap;html=1;strokeWidth=1;fillColor=none;align=center;" vertex="1" parent="1">
          <mxGeometry x="662" y="660" width="452" height="210" as="geometry" />
        </mxCell>
        <mxCell id="00rbyf-99KH5G40TQg_o-32" style="edgeStyle=orthogonalEdgeStyle;rounded=0;orthogonalLoop=1;jettySize=auto;html=1;exitX=0.965;exitY=0.305;exitDx=0;exitDy=0;entryX=0;entryY=0.5;entryDx=0;entryDy=0;exitPerimeter=0;strokeWidth=4;" edge="1" parent="1" source="00rbyf-99KH5G40TQg_o-33" target="00rbyf-99KH5G40TQg_o-41">
          <mxGeometry relative="1" as="geometry" />
        </mxCell>
        <mxCell id="00rbyf-99KH5G40TQg_o-33" value="" style="ellipse;whiteSpace=wrap;html=1;gradientColor=none;fillColor=none;dashed=1;dashPattern=8 8;" vertex="1" parent="1">
          <mxGeometry x="714" y="683" width="208" height="120" as="geometry" />
        </mxCell>
        <mxCell id="00rbyf-99KH5G40TQg_o-34" value="&lt;b&gt;DHP数据封装&lt;/b&gt;&lt;div&gt;&lt;b&gt;（NHP-DE）&lt;/b&gt;&lt;/div&gt;" style="text;html=1;align=center;verticalAlign=middle;whiteSpace=wrap;rounded=0;" vertex="1" parent="1">
          <mxGeometry x="757" y="728" width="120" height="30" as="geometry" />
        </mxCell>
        <mxCell id="00rbyf-99KH5G40TQg_o-35" value="" style="group" vertex="1" connectable="0" parent="1">
          <mxGeometry x="1004" y="755" width="80" height="40" as="geometry" />
        </mxCell>
        <mxCell id="00rbyf-99KH5G40TQg_o-36" value="" style="rounded=0;whiteSpace=wrap;html=1;strokeWidth=1;fillColor=none;align=center;" vertex="1" parent="00rbyf-99KH5G40TQg_o-35">
          <mxGeometry width="80" height="40" as="geometry" />
        </mxCell>
        <mxCell id="00rbyf-99KH5G40TQg_o-37" value="&lt;b&gt;零信任数据对象ZTDO&lt;/b&gt;" style="text;html=1;align=center;verticalAlign=middle;whiteSpace=wrap;rounded=0;" vertex="1" parent="00rbyf-99KH5G40TQg_o-35">
          <mxGeometry x="6" y="9" width="70" height="24" as="geometry" />
        </mxCell>
        <mxCell id="00rbyf-99KH5G40TQg_o-38" value="" style="group" vertex="1" connectable="0" parent="1">
          <mxGeometry x="1014" y="704" width="70" height="30" as="geometry" />
        </mxCell>
        <mxCell id="00rbyf-99KH5G40TQg_o-39" value="" style="group" vertex="1" connectable="0" parent="00rbyf-99KH5G40TQg_o-38">
          <mxGeometry x="-3" width="70" height="30" as="geometry" />
        </mxCell>
        <mxCell id="00rbyf-99KH5G40TQg_o-40" value="" style="rounded=0;whiteSpace=wrap;html=1;strokeWidth=1;fillColor=none;align=center;" vertex="1" parent="00rbyf-99KH5G40TQg_o-39">
          <mxGeometry x="2" width="60" height="30" as="geometry" />
        </mxCell>
        <mxCell id="00rbyf-99KH5G40TQg_o-41" value="&lt;b&gt;原始数据&lt;/b&gt;" style="text;html=1;align=center;verticalAlign=middle;whiteSpace=wrap;rounded=0;" vertex="1" parent="00rbyf-99KH5G40TQg_o-39">
          <mxGeometry y="4" width="70" height="24" as="geometry" />
        </mxCell>
        <mxCell id="00rbyf-99KH5G40TQg_o-42" style="edgeStyle=orthogonalEdgeStyle;rounded=0;orthogonalLoop=1;jettySize=auto;html=1;exitX=0.5;exitY=1;exitDx=0;exitDy=0;" edge="1" parent="1" source="00rbyf-99KH5G40TQg_o-31" target="00rbyf-99KH5G40TQg_o-31">
          <mxGeometry relative="1" as="geometry" />
        </mxCell>
        <mxCell id="00rbyf-99KH5G40TQg_o-43" style="edgeStyle=orthogonalEdgeStyle;rounded=0;orthogonalLoop=1;jettySize=auto;html=1;exitX=0;exitY=0.5;exitDx=0;exitDy=0;entryX=0.913;entryY=0.767;entryDx=0;entryDy=0;entryPerimeter=0;strokeWidth=4;" edge="1" parent="1" source="00rbyf-99KH5G40TQg_o-36" target="00rbyf-99KH5G40TQg_o-33">
          <mxGeometry relative="1" as="geometry" />
        </mxCell>
        <mxCell id="00rbyf-99KH5G40TQg_o-44" value="&lt;b&gt;数据资源请提供者&lt;/b&gt;" style="text;html=1;align=center;verticalAlign=middle;whiteSpace=wrap;rounded=0;" vertex="1" parent="1">
          <mxGeometry x="844" y="830" width="105" height="30" as="geometry" />
        </mxCell>
        <mxCell id="00rbyf-99KH5G40TQg_o-45" value="" style="ellipse;shape=cloud;whiteSpace=wrap;html=1;gradientColor=none;fillColor=none;" vertex="1" parent="1">
          <mxGeometry x="951" y="256" width="290" height="360" as="geometry" />
        </mxCell>
        <mxCell id="00rbyf-99KH5G40TQg_o-46" value="&lt;font&gt;&lt;b&gt;授权服务提供商&lt;/b&gt;&lt;/font&gt;&lt;div&gt;&lt;font&gt;&lt;b&gt;（Authorization Service Provider）&lt;/b&gt;&lt;/font&gt;&lt;/div&gt;&lt;div&gt;&lt;b&gt;（认证授权、 密钥访问服务、策略访问服务）&lt;/b&gt;&lt;/div&gt;" style="text;html=1;align=center;verticalAlign=middle;whiteSpace=wrap;rounded=0;" vertex="1" parent="1">
          <mxGeometry x="1006" y="336" width="180" height="120" as="geometry" />
        </mxCell>
        <mxCell id="00rbyf-99KH5G40TQg_o-47" value="认证授权" style="text;html=1;align=center;verticalAlign=middle;whiteSpace=wrap;rounded=0;" vertex="1" parent="1">
          <mxGeometry x="1131" y="507" width="60" height="30" as="geometry" />
        </mxCell>
        <mxCell id="00rbyf-99KH5G40TQg_o-48" value="" style="sketch=0;outlineConnect=0;fontColor=#232F3E;gradientColor=none;fillColor=light-dark(#000000, #61820b);strokeColor=none;dashed=0;verticalLabelPosition=bottom;verticalAlign=top;align=center;html=1;fontSize=12;fontStyle=0;aspect=fixed;pointerEvents=1;shape=mxgraph.aws4.policy;" vertex="1" parent="1">
          <mxGeometry x="1073.97" y="464.5" width="50.06" height="43" as="geometry" />
        </mxCell>
        <mxCell id="00rbyf-99KH5G40TQg_o-49" value="策略访问服务" style="text;html=1;align=center;verticalAlign=middle;whiteSpace=wrap;rounded=0;" vertex="1" parent="1">
          <mxGeometry x="1064.03" y="515" width="60" height="30" as="geometry" />
        </mxCell>
        <mxCell id="00rbyf-99KH5G40TQg_o-50" value="" style="sketch=0;verticalLabelPosition=bottom;sketch=0;aspect=fixed;html=1;verticalAlign=top;strokeColor=none;fillColor=#000000;align=center;outlineConnect=0;pointerEvents=1;shape=mxgraph.citrix2.citrix_federated_authentication_service2;" vertex="1" parent="1">
          <mxGeometry x="1136" y="470.95000000000005" width="50" height="30.095" as="geometry" />
        </mxCell>
        <mxCell id="00rbyf-99KH5G40TQg_o-51" value="" style="sketch=0;outlineConnect=0;fontColor=#232F3E;gradientColor=none;fillColor=#000000;strokeColor=none;dashed=0;verticalLabelPosition=bottom;verticalAlign=top;align=center;html=1;fontSize=12;fontStyle=0;aspect=fixed;pointerEvents=1;shape=mxgraph.aws4.key_management_service_external_key_store;" vertex="1" parent="1">
          <mxGeometry x="1006" y="460" width="45" height="45" as="geometry" />
        </mxCell>
        <mxCell id="00rbyf-99KH5G40TQg_o-52" value="密钥访问服务" style="text;html=1;align=center;verticalAlign=middle;whiteSpace=wrap;rounded=0;" vertex="1" parent="1">
          <mxGeometry x="1004.03" y="515" width="60" height="30" as="geometry" />
        </mxCell>
        <mxCell id="00rbyf-99KH5G40TQg_o-53" style="edgeStyle=orthogonalEdgeStyle;rounded=0;orthogonalLoop=1;jettySize=auto;html=1;exitX=1;exitY=0.75;exitDx=0;exitDy=0;entryX=0.345;entryY=0.87;entryDx=0;entryDy=0;entryPerimeter=0;endArrow=block;endFill=0;startArrow=block;startFill=0;strokeWidth=2;" edge="1" parent="1" source="00rbyf-99KH5G40TQg_o-25" target="00rbyf-99KH5G40TQg_o-45">
          <mxGeometry relative="1" as="geometry" />
        </mxCell>
        <mxCell id="00rbyf-99KH5G40TQg_o-54" style="edgeStyle=orthogonalEdgeStyle;rounded=0;orthogonalLoop=1;jettySize=auto;html=1;exitX=0.965;exitY=0.305;exitDx=0;exitDy=0;exitPerimeter=0;strokeWidth=4;" edge="1" parent="1">
          <mxGeometry relative="1" as="geometry">
            <mxPoint x="344" y="828" as="sourcePoint" />
            <mxPoint x="494" y="828" as="targetPoint" />
          </mxGeometry>
        </mxCell>
        <mxCell id="00rbyf-99KH5G40TQg_o-55" value="&lt;font style=&quot;font-size: 14px;&quot;&gt;&lt;b style=&quot;&quot;&gt;数据&lt;/b&gt;&lt;/font&gt;" style="edgeLabel;html=1;align=center;verticalAlign=middle;resizable=0;points=[];" vertex="1" connectable="0" parent="00rbyf-99KH5G40TQg_o-54">
          <mxGeometry x="-0.0653" y="-2" relative="1" as="geometry">
            <mxPoint as="offset" />
          </mxGeometry>
        </mxCell>
        <mxCell id="00rbyf-99KH5G40TQg_o-56" style="edgeStyle=orthogonalEdgeStyle;rounded=0;orthogonalLoop=1;jettySize=auto;html=1;exitX=1;exitY=0.75;exitDx=0;exitDy=0;endArrow=block;endFill=0;startArrow=block;startFill=0;strokeWidth=2;" edge="1" parent="1">
          <mxGeometry relative="1" as="geometry">
            <mxPoint x="347.5" y="783.37" as="sourcePoint" />
            <mxPoint x="494" y="783" as="targetPoint" />
          </mxGeometry>
        </mxCell>
        <mxCell id="00rbyf-99KH5G40TQg_o-57" value="&lt;font style=&quot;font-size: 14px;&quot;&gt;&lt;b&gt;支撑服务&lt;/b&gt;&lt;/font&gt;" style="edgeLabel;html=1;align=center;verticalAlign=middle;resizable=0;points=[];" vertex="1" connectable="0" parent="00rbyf-99KH5G40TQg_o-56">
          <mxGeometry x="-0.0094" relative="1" as="geometry">
            <mxPoint x="1" as="offset" />
          </mxGeometry>
        </mxCell>
        <mxCell id="00rbyf-99KH5G40TQg_o-58" value="" style="endArrow=classic;startArrow=classic;html=1;rounded=0;strokeWidth=2;" edge="1" parent="1">
          <mxGeometry width="50" height="50" relative="1" as="geometry">
            <mxPoint x="348" y="734" as="sourcePoint" />
            <mxPoint x="494" y="734" as="targetPoint" />
          </mxGeometry>
        </mxCell>
        <mxCell id="00rbyf-99KH5G40TQg_o-59" value="&lt;font style=&quot;font-size: 14px;&quot;&gt;&lt;b&gt;NHP控制消息&lt;/b&gt;&lt;/font&gt;" style="edgeLabel;html=1;align=center;verticalAlign=middle;resizable=0;points=[];" vertex="1" connectable="0" parent="00rbyf-99KH5G40TQg_o-58">
          <mxGeometry x="-0.0527" relative="1" as="geometry">
            <mxPoint as="offset" />
          </mxGeometry>
        </mxCell>
        <mxCell id="00rbyf-99KH5G40TQg_o-60" style="edgeStyle=orthogonalEdgeStyle;rounded=0;orthogonalLoop=1;jettySize=auto;html=1;exitX=0.75;exitY=0;exitDx=0;exitDy=0;entryX=0.75;entryY=1;entryDx=0;entryDy=0;strokeWidth=4;" edge="1" parent="1" source="00rbyf-99KH5G40TQg_o-61" target="00rbyf-99KH5G40TQg_o-7">
          <mxGeometry relative="1" as="geometry" />
        </mxCell>
        <mxCell id="00rbyf-99KH5G40TQg_o-61" value="隐私数据保护层" style="rounded=0;whiteSpace=wrap;html=1;fillColor=none;dashed=1;dashPattern=8 8;" vertex="1" parent="1">
          <mxGeometry x="369" y="323" width="170" height="30" as="geometry" />
        </mxCell>
      </root>
    </mxGraphModel>
  </diagram>
</mxfile>
